Coordinates
version=1
nRows=24
nColumns=24
inDegrees=yes

Units are S.I. units (second, meters, Newtons, ...)
Angles are in degrees.

endheader
time	pelvis_tilt	pelvis_list	pelvis_rotation	pelvis_tx	pelvis_ty	pelvis_tz	hip_flexion_r	hip_adduction_r	hip_rotation_r	knee_angle_r	ankle_angle_r	subtalar_angle_r	mtp_angle_r	hip_flexion_l	hip_adduction_l	hip_rotation_l	knee_angle_l	ankle_angle_l	subtalar_angle_l	mtp_angle_l	lumbar_extension	lumbar_bending	lumbar_rotation
      1.32550000	     -0.40041900	      3.33717639	     -1.84926639	      0.22296382	      1.06468874	      0.32898247	     15.31120402	     -5.34842828	     -3.49600776	    -67.39584861	     -5.98549840	    -11.03730409	      4.14286761	      8.34978150	      8.08208469	     -4.91262322	     -7.93408502	      0.79938014	     -3.33663697	      0.59440546	      5.88992023	     -1.19887272	     -0.76124192
      1.32966667	     -0.40910901	      3.31340695	     -1.86629156	      0.22794876	      1.06524614	      0.32878365	     15.96340061	     -5.28733355	     -3.30126492	    -67.43176023	     -5.35545973	    -11.27688713	      4.06357183	      7.95883463	      8.08607707	     -4.88945334	     -7.73994774	      0.96175391	     -3.26471079	      0.55905993	      5.87111209	     -1.15128069	     -0.82027839
      1.33383333	     -0.41503258	      3.28509474	     -1.88471182	      0.23292643	      1.06580055	      0.32859069	     16.59762660	     -5.21582792	     -3.10605957	    -67.40436491	     -4.72715400	    -11.47410065	      3.98231099	      7.55910962	      8.08469630	     -4.86541864	     -7.53389225	      1.12089198	     -3.18697365	      0.52132856	      5.85480371	     -1.09503969	     -0.87908305
      1.33800000	     -0.40802251	      3.27036272	     -1.91595050	      0.23788492	      1.06634972	      0.32834667	     17.21106501	     -5.16104919	     -2.90098662	    -67.31562571	     -4.27454541	    -11.61565383	      3.93717947	      7.13131523	      8.10698931	     -4.77022480	     -7.28786127	      1.22826142	     -3.09645842	      0.50062572	      5.82005608	     -1.00369785	     -0.93333499
      1.34216667	     -0.41090139	      3.22134178	     -1.90444497	      0.24288913	      1.06690629	      0.32821937	     17.79366211	     -5.05130964	     -2.73075352	    -67.15292117	     -3.52312782	    -11.75957911	      3.85566553	      6.72508215	      8.07293363	     -4.79328798	     -7.09162512	      1.42087235	     -3.04441158	      0.45891262	      5.79651039	     -0.98126425	     -0.99092344
      1.34633333	     -0.40230101	      3.20096636	     -1.93844433	      0.24781254	      1.06742507	      0.32799299	     18.37680278	     -4.97766248	     -2.51707769	    -66.93684773	     -3.09815888	    -11.83794348	      3.81241185	      6.28607147	      8.08874578	     -4.68768978	     -6.82179280	      1.51875832	     -2.95043945	      0.43707346	      5.76917042	     -0.88516695	     -1.04512290
      1.35050000	     -0.39171708	      3.16881312	     -1.95462519	      0.25279017	      1.06794819	      0.32784019	     18.92740438	     -4.87981763	     -2.32172144	    -66.66347482	     -2.48217924	    -11.92622539	      3.76064103	      5.84301983	      8.08147071	     -4.63716998	     -6.56306372	      1.66798794	     -2.88786873	      0.40876913	      5.75100130	     -0.82469431	     -1.10099251
      1.35466667	     -0.38924887	      3.13627113	     -1.95492694	      0.25775771	      1.06844016	      0.32767469	     19.46722225	     -4.78077161	     -2.13689027	    -66.32970292	     -1.91073826	    -11.95039469	      3.70722038	      5.40657178	      8.07373599	     -4.57815126	     -6.30400001	      1.80171151	     -2.81800990	      0.37792612	      5.72340448	     -0.76929303	     -1.15705990
      1.35883333	     -0.39043664	      3.08417252	     -1.91611215	      0.26272561	      1.06892529	      0.32752421	     19.97843756	     -4.66053315	     -1.98856078	    -65.93231565	     -1.21970958	    -11.86670268	      3.61531389	      4.98307198	      8.03894016	     -4.57230221	     -6.07188035	      1.96677402	     -2.75893829	      0.32090245	      5.67839196	     -0.74086014	     -1.22657748
      1.36300000	     -0.38291477	      3.07043257	     -1.93849726	      0.26767195	      1.06936393	      0.32735756	     20.49200119	     -4.57243333	     -1.77731417	    -65.48317529	     -0.87235089	    -11.86781535	      3.57258617	      4.52145552	      8.05793910	     -4.45164043	     -5.75838145	      2.03965029	     -2.67236568	      0.29496486	      5.66047446	     -0.67677478	     -1.27722443
      1.36716667	     -0.37562713	      3.04008901	     -1.94169323	      0.27265242	      1.06979466	      0.32721909	     20.97504746	     -4.46267091	     -1.58901020	    -64.97890271	     -0.35494621	    -11.86448890	      3.52166970	      4.05944451	      8.05387920	     -4.37407407	     -5.45489740	      2.15753661	     -2.62475507	      0.26165815	      5.65109661	     -0.61798830	     -1.33513111
      1.37133333	     -0.36074633	      3.01094090	     -1.89524516	      0.27752748	      1.07020759	      0.32703241	     21.42988866	     -4.36731568	     -1.43529930	    -64.43345694	      0.33309799	    -11.58325493	      3.35508478	      3.60731194	      8.05117552	     -4.29653468	     -5.18359038	      2.29427242	     -2.56719611	      0.14567408	      5.51823006	     -0.60265782	     -1.45195400
      1.37550000	     -0.39039571	      2.97568196	     -1.86819855	      0.28250024	      1.07053478	      0.32695882	     21.91042045	     -4.24314456	     -1.26471355	    -63.79087894	      0.52648833	    -11.61821203	      3.33270640	      3.18595558	      8.02960040	     -4.22793501	     -4.88627358	      2.34006163	     -2.53067149	      0.13117777	      5.50227870	     -0.59896662	     -1.47671533
      1.37966667	     -0.35170534	      2.95403318	     -1.86313853	      0.28751457	      1.07092831	      0.32677835	     22.30177332	     -4.14646438	     -1.10257216	    -63.13786156	      1.13619390	    -11.61977910	      3.24048872	      2.67203243	      8.04364194	     -4.15277720	     -4.54588297	      2.48061375	     -2.53259322	      0.06396612	      5.52046387	     -0.50935861	     -1.55988474
      1.38383333	     -0.36306146	      2.95295942	     -1.86781277	      0.29247333	      1.07118608	      0.32666214	     22.74345915	     -4.05540916	     -0.90488314	    -62.42449726	      1.39467450	    -11.61164818	      3.19624633	      2.21110867	      8.07274095	     -4.02965587	     -4.19709170	      2.53370958	     -2.47837632	      0.03206888	      5.52186871	     -0.49602125	     -1.60462525
      1.38800000	     -0.36429744	      2.93912789	     -1.85309873	      0.29746127	      1.07144672	      0.32654225	     23.14415859	     -3.95517677	     -0.73510966	    -61.65417400	      1.73365921	    -11.60961902	      3.14648644	      1.73803080	      8.08561485	     -3.93549635	     -3.85217542	      2.61111848	     -2.45773623	     -0.00558908	      5.52376558	     -0.46811136	     -1.66039607
      1.39216667	     -0.36940004	      2.92932350	     -1.83068371	      0.30243000	      1.07165807	      0.32643076	     23.53197094	     -3.85865883	     -0.57164696	    -60.83628855	      2.04777810	    -11.60568900	      3.09446040	      1.27089173	      8.10235459	     -3.84056455	     -3.50920146	      2.68540673	     -2.44637995	     -0.04602987	      5.50921920	     -0.44949823	     -1.72109367
      1.39633333	     -0.42805468	      2.92772832	     -1.77887862	      0.30734716	      1.07175533	      0.32638092	     23.96001847	     -3.76649728	     -0.42057066	    -59.96265458	      2.22526255	    -11.62164741	      3.07196034	      0.88082796	      8.11470274	     -3.78726293	     -3.20653349	      2.72914465	     -2.42885315	     -0.06310653	      5.44656349	     -0.48616597	     -1.75004982
      1.40050000	     -0.40642629	      2.93332068	     -1.78861307	      0.31236806	      1.07192362	      0.32626915	     24.28546945	     -3.67944245	     -0.24522543	    -59.05509562	      2.51363038	    -11.66396708	      3.02442583	      0.36268616	      8.15617807	     -3.66678599	     -2.81112653	      2.80926056	     -2.41726378	     -0.10076119	      5.51242844	     -0.44922713	     -1.81787615
      1.40466667	     -0.41428530	      2.93014425	     -1.76351423	      0.31735928	      1.07202142	      0.32616407	     24.61546128	     -3.58870259	     -0.09401750	    -58.08633197	      2.73149609	    -11.71022366	      2.97214894	     -0.10883556	      8.17989879	     -3.56690560	     -2.45704782	      2.87444254	     -2.42648814	     -0.14309617	      5.50336867	     -0.44211293	     -1.88940488
      1.40883333	     -0.48037832	      2.94258626	     -1.71674474	      0.32225870	      1.07198146	      0.32613334	     24.99762607	     -3.50641210	      0.05790596	    -57.07448373	      2.85999203	    -11.75656362	      2.94659979	     -0.49010851	      8.20672109	     -3.51324296	     -2.15388484	      2.91570273	     -2.42080591	     -0.16306313	      5.44724757	     -0.49003994	     -1.92350595
      1.41300000	     -0.39362606	      2.90427356	     -1.67739874	      0.32734599	      1.07218826	      0.32594161	     25.15930363	     -3.39877699	      0.14232155	    -55.97713537	      3.00930076	    -11.97841016	      2.81553020	     -1.08360552	      8.20222074	     -3.36981184	     -1.76780874	      3.01559043	     -2.53802398	     -0.27270213	      5.40786711	     -0.36538866	     -2.10944309
      1.41716667	     -0.42417339	      2.94035011	     -1.68361567	      0.33226171	      1.07209664	      0.32591536	     25.47685149	     -3.33201874	      0.32348579	    -54.88602482	      3.05888427	    -12.06379122	      2.76574609	     -1.52198916	      8.26624000	     -3.25699148	     -1.41300676	      3.03630831	     -2.50827865	     -0.31311505	      5.42668087	     -0.45967328	     -2.15219299
      1.42133333	     -0.45046535	      2.95115381	     -1.67421165	      0.33727857	      1.07201025	      0.32587227	     25.74724940	     -3.24441328	      0.47091344	    -53.72222458	      3.08807885	    -12.22709555	      2.70676475	     -1.96724113	      8.30088531	     -3.17596130	     -1.06860315	      3.09087896	     -2.52136081	     -0.36080409	      5.46461624	     -0.47571152	     -2.21466181
